<mxfile host="65bd71144e">
    <diagram id="ilINY4HTXc3i-6_W89QE" name="Page-1">
        <mxGraphModel dx="1568" dy="707" grid="1" gridSize="10" guides="1" tooltips="1" connect="1" arrows="1" fold="1" page="1" pageScale="1" pageWidth="850" pageHeight="1100" math="0" shadow="0">
            <root>
                <mxCell id="0"/>
                <mxCell id="1" parent="0"/>
                <mxCell id="g-2fC5MFkAroZ0GK5GJs-1" value="DiagnosticQuestion" style="swimlane;fontStyle=0;childLayout=stackLayout;horizontal=1;startSize=26;fillColor=none;horizontalStack=0;resizeParent=1;resizeParentMax=0;resizeLast=0;collapsible=1;marginBottom=0;" parent="1" vertex="1">
                    <mxGeometry x="160" y="610" width="205" height="182" as="geometry"/>
                </mxCell>
                <mxCell id="g-2fC5MFkAroZ0GK5GJs-2" value="- question: String" style="text;strokeColor=none;fillColor=none;align=left;verticalAlign=top;spacingLeft=4;spacingRight=4;overflow=hidden;rotatable=0;points=[[0,0.5],[1,0.5]];portConstraint=eastwest;" parent="g-2fC5MFkAroZ0GK5GJs-1" vertex="1">
                    <mxGeometry y="26" width="205" height="26" as="geometry"/>
                </mxCell>
                <mxCell id="g-2fC5MFkAroZ0GK5GJs-3" value="- yesBranch: DiagnosticNode" style="text;strokeColor=none;fillColor=none;align=left;verticalAlign=top;spacingLeft=4;spacingRight=4;overflow=hidden;rotatable=0;points=[[0,0.5],[1,0.5]];portConstraint=eastwest;" parent="g-2fC5MFkAroZ0GK5GJs-1" vertex="1">
                    <mxGeometry y="52" width="205" height="26" as="geometry"/>
                </mxCell>
                <mxCell id="g-2fC5MFkAroZ0GK5GJs-4" value="- noBranch: DiagnosticNode" style="text;strokeColor=none;fillColor=none;align=left;verticalAlign=top;spacingLeft=4;spacingRight=4;overflow=hidden;rotatable=0;points=[[0,0.5],[1,0.5]];portConstraint=eastwest;" parent="g-2fC5MFkAroZ0GK5GJs-1" vertex="1">
                    <mxGeometry y="78" width="205" height="26" as="geometry"/>
                </mxCell>
                <mxCell id="2" value="+ getQuestion(): String" style="text;strokeColor=none;fillColor=none;align=left;verticalAlign=top;spacingLeft=4;spacingRight=4;overflow=hidden;rotatable=0;points=[[0,0.5],[1,0.5]];portConstraint=eastwest;" vertex="1" parent="g-2fC5MFkAroZ0GK5GJs-1">
                    <mxGeometry y="104" width="205" height="26" as="geometry"/>
                </mxCell>
                <mxCell id="3" value="+ getYesBranch(): DiagnosticNode&#10;" style="text;strokeColor=none;fillColor=none;align=left;verticalAlign=top;spacingLeft=4;spacingRight=4;overflow=hidden;rotatable=0;points=[[0,0.5],[1,0.5]];portConstraint=eastwest;" vertex="1" parent="g-2fC5MFkAroZ0GK5GJs-1">
                    <mxGeometry y="130" width="205" height="26" as="geometry"/>
                </mxCell>
                <mxCell id="4" value="+ getNoBranch(): DiagnosticNode" style="text;strokeColor=none;fillColor=none;align=left;verticalAlign=top;spacingLeft=4;spacingRight=4;overflow=hidden;rotatable=0;points=[[0,0.5],[1,0.5]];portConstraint=eastwest;" vertex="1" parent="g-2fC5MFkAroZ0GK5GJs-1">
                    <mxGeometry y="156" width="205" height="26" as="geometry"/>
                </mxCell>
                <mxCell id="g-2fC5MFkAroZ0GK5GJs-5" value="&lt;p style=&quot;margin:0px;margin-top:4px;text-align:center;&quot;&gt;&lt;i&gt;&amp;lt;&amp;lt;Interface&amp;gt;&amp;gt;&lt;/i&gt;&lt;br&gt;&lt;b&gt;DiagnosticNode&lt;/b&gt;&lt;br&gt;&lt;/p&gt;&lt;hr size=&quot;1&quot;&gt;&lt;hr size=&quot;1&quot;&gt;&lt;p style=&quot;margin:0px;margin-left:4px;&quot;&gt;&lt;br&gt;&lt;/p&gt;" style="verticalAlign=top;align=left;overflow=fill;fontSize=12;fontFamily=Helvetica;html=1;" parent="1" vertex="1">
                    <mxGeometry x="300" y="434" width="230" height="70" as="geometry"/>
                </mxCell>
                <mxCell id="g-2fC5MFkAroZ0GK5GJs-6" value="DiagnosticSolution" style="swimlane;fontStyle=0;childLayout=stackLayout;horizontal=1;startSize=26;fillColor=none;horizontalStack=0;resizeParent=1;resizeParentMax=0;resizeLast=0;collapsible=1;marginBottom=0;" parent="1" vertex="1">
                    <mxGeometry x="440" y="610" width="190" height="78" as="geometry"/>
                </mxCell>
                <mxCell id="g-2fC5MFkAroZ0GK5GJs-7" value="- solution: String" style="text;strokeColor=none;fillColor=none;align=left;verticalAlign=top;spacingLeft=4;spacingRight=4;overflow=hidden;rotatable=0;points=[[0,0.5],[1,0.5]];portConstraint=eastwest;" parent="g-2fC5MFkAroZ0GK5GJs-6" vertex="1">
                    <mxGeometry y="26" width="190" height="26" as="geometry"/>
                </mxCell>
                <mxCell id="g-2fC5MFkAroZ0GK5GJs-12" value="+ getSolution(): String" style="text;strokeColor=none;fillColor=none;align=left;verticalAlign=top;spacingLeft=4;spacingRight=4;overflow=hidden;rotatable=0;points=[[0,0.5],[1,0.5]];portConstraint=eastwest;" parent="g-2fC5MFkAroZ0GK5GJs-6" vertex="1">
                    <mxGeometry y="52" width="190" height="26" as="geometry"/>
                </mxCell>
                <mxCell id="g-2fC5MFkAroZ0GK5GJs-10" value="" style="endArrow=block;dashed=1;endFill=0;endSize=12;html=1;rounded=0;" parent="1" source="g-2fC5MFkAroZ0GK5GJs-1" target="g-2fC5MFkAroZ0GK5GJs-5" edge="1">
                    <mxGeometry width="160" relative="1" as="geometry">
                        <mxPoint x="270" y="780" as="sourcePoint"/>
                        <mxPoint x="430" y="780" as="targetPoint"/>
                    </mxGeometry>
                </mxCell>
                <mxCell id="g-2fC5MFkAroZ0GK5GJs-11" value="" style="endArrow=block;dashed=1;endFill=0;endSize=12;html=1;rounded=0;" parent="1" source="g-2fC5MFkAroZ0GK5GJs-6" target="g-2fC5MFkAroZ0GK5GJs-5" edge="1">
                    <mxGeometry width="160" relative="1" as="geometry">
                        <mxPoint x="280.1980198019802" y="640" as="sourcePoint"/>
                        <mxPoint x="357.42574257425736" y="560" as="targetPoint"/>
                    </mxGeometry>
                </mxCell>
                <mxCell id="g-2fC5MFkAroZ0GK5GJs-17" value="App" style="swimlane;fontStyle=0;childLayout=stackLayout;horizontal=1;startSize=26;fillColor=none;horizontalStack=0;resizeParent=1;resizeParentMax=0;resizeLast=0;collapsible=1;marginBottom=0;" parent="1" vertex="1">
                    <mxGeometry x="-350" y="430" width="200" height="78" as="geometry"/>
                </mxCell>
                <mxCell id="g-2fC5MFkAroZ0GK5GJs-18" value="+ main(): void" style="text;strokeColor=none;fillColor=none;align=left;verticalAlign=top;spacingLeft=4;spacingRight=4;overflow=hidden;rotatable=0;points=[[0,0.5],[1,0.5]];portConstraint=eastwest;" parent="g-2fC5MFkAroZ0GK5GJs-17" vertex="1">
                    <mxGeometry y="26" width="200" height="26" as="geometry"/>
                </mxCell>
                <mxCell id="g-2fC5MFkAroZ0GK5GJs-19" value="+ diagnose(): String" style="text;strokeColor=none;fillColor=none;align=left;verticalAlign=top;spacingLeft=4;spacingRight=4;overflow=hidden;rotatable=0;points=[[0,0.5],[1,0.5]];portConstraint=eastwest;" parent="g-2fC5MFkAroZ0GK5GJs-17" vertex="1">
                    <mxGeometry y="52" width="200" height="26" as="geometry"/>
                </mxCell>
                <mxCell id="g-2fC5MFkAroZ0GK5GJs-22" value="DiagnosticTreeFactory" style="swimlane;fontStyle=0;childLayout=stackLayout;horizontal=1;startSize=26;fillColor=none;horizontalStack=0;resizeParent=1;resizeParentMax=0;resizeLast=0;collapsible=1;marginBottom=0;" parent="1" vertex="1">
                    <mxGeometry x="-40" y="443" width="200" height="52" as="geometry"/>
                </mxCell>
                <mxCell id="g-2fC5MFkAroZ0GK5GJs-23" value="+ create(): DiagnosticNode" style="text;strokeColor=none;fillColor=none;align=left;verticalAlign=top;spacingLeft=4;spacingRight=4;overflow=hidden;rotatable=0;points=[[0,0.5],[1,0.5]];portConstraint=eastwest;" parent="g-2fC5MFkAroZ0GK5GJs-22" vertex="1">
                    <mxGeometry y="26" width="200" height="26" as="geometry"/>
                </mxCell>
                <mxCell id="g-2fC5MFkAroZ0GK5GJs-28" value="Use" style="endArrow=open;endSize=12;dashed=1;html=1;rounded=0;" parent="1" source="g-2fC5MFkAroZ0GK5GJs-22" target="g-2fC5MFkAroZ0GK5GJs-5" edge="1">
                    <mxGeometry x="0.0129" y="-3" width="160" relative="1" as="geometry">
                        <mxPoint x="151.20689655172418" y="920" as="sourcePoint"/>
                        <mxPoint x="227.39130434782624" y="744" as="targetPoint"/>
                        <Array as="points"/>
                        <mxPoint as="offset"/>
                    </mxGeometry>
                </mxCell>
                <mxCell id="g-2fC5MFkAroZ0GK5GJs-29" value="Use" style="endArrow=open;endSize=12;dashed=1;html=1;rounded=0;" parent="1" source="g-2fC5MFkAroZ0GK5GJs-17" target="g-2fC5MFkAroZ0GK5GJs-22" edge="1">
                    <mxGeometry width="160" relative="1" as="geometry">
                        <mxPoint x="-480" y="133" as="sourcePoint"/>
                        <mxPoint x="-320" y="133" as="targetPoint"/>
                    </mxGeometry>
                </mxCell>
            </root>
        </mxGraphModel>
    </diagram>
</mxfile>